{"title":"Atlantis 2013 S01E13 Touched by the Gods Part-2 x264 AAC E-Subs ","uid":9411073,"size":128909281,"categoryP":"video","categoryS":"tv_shows","magnet":"?xt=urn:btih:232d03bae4119bfedc370853151585b5ee0b34f9&amp;dn=Atlantis+2013+S01E13+Touched+by+the+Gods+Part-2+x264+AAC+E-Subs+&amp;tr=udp%3A%2F%2Ftracker.openbittorrent.com%3A80&amp;tr=udp%3A%2F%2Fopen.demonii.com%3A1337&amp;tr=udp%3A%2F%2Ftracker.coppersurfer.tk%3A6969&amp;tr=udp%3A%2F%2Fexodus.desync.com%3A6969","seeders":1,"leechers":1,"uploader":"canc232","files":1,"time":1388297933,"description":"Atlantis 2013 S01E13 Touched by the Gods Part-2 x264 AAC E-Subs [GWC]\n\n\n\n\nSCREENS :\n &lt;a href=&quot;\nhttp://s20.postimg.org/h8ku5l0n1/atlantis_2013_S01_E13_touched_the_gods_10_31_54.jpg&quot; rel=&quot;nofollow&quot; target=&quot;_NEW&quot;&gt;\nhttp://s20.postimg.org/h8ku5l0n1/atlantis_2013_S01_E13_touched_the_gods_10_31_54.jpg&lt;/a&gt; &lt;a href=&quot;\nhttp://s20.postimg.org/ic4yhjla5/atlantis_2013_S01_E13_touched_the_gods_10_32_09.jpg&quot; rel=&quot;nofollow&quot; target=&quot;_NEW&quot;&gt;\nhttp://s20.postimg.org/ic4yhjla5/atlantis_2013_S01_E13_touched_the_gods_10_32_09.jpg&lt;/a&gt; &lt;a href=&quot;\nhttp://s20.postimg.org/bzpt7pi7x/atlantis_2013_S01_E13_touched_the_gods_10_32_34.jpg&quot; rel=&quot;nofollow&quot; target=&quot;_NEW&quot;&gt;\nhttp://s20.postimg.org/bzpt7pi7x/atlantis_2013_S01_E13_touched_the_gods_10_32_34.jpg&lt;/a&gt;\n\n\n\n\nMEDIA INFO :\nGeneral \nFormat : MPEG-4 \nFormat profile : Base Media \nFile size : 123 MiB \nDuration : 43mn 12s \nOverall bit rate : 398 Kbps \n\nVideo \nFormat : AVC \nFormat profile : &lt;a class=&quot;__cf_email__&quot; href=&quot;/cdn-cgi/l/email-protection&quot; data-cfemail=&quot;c088a9a7a8808cf3eef0&quot;&gt;[email&amp;#160;protected]&lt;/a&gt;&lt;script cf-hash='f9e31' type=&quot;text/javascript&quot;&gt;\n/* &lt;![CDATA[ */!function(){try{var t=&quot;currentScript&quot;in document?document.currentScript:function(){for(var t=document.getElementsByTagName(&quot;script&quot;),e=t.length;e--;)if(t[e].getAttribute(&quot;cf-hash&quot;))return t[e]}();if(t&amp;&amp;t.previousSibling){var e,r,n,i,c=t.previousSibling,a=c.getAttribute(&quot;data-cfemail&quot;);if(a){for(e=&quot;&quot;,r=parseInt(a.substr(0,2),16),n=2;a.length-n;n+=2)i=parseInt(a.substr(n,2),16)^r,e+=String.fromCharCode(i);e=document.createTextNode(e),c.parentNode.replaceChild(e,c)}}}catch(u){}}();/* ]]&gt; */&lt;/script&gt; \nFormat settings, CABAC : Yes \nFormat settings, ReFrames : 4 frames \nDuration : 43mn 12s \nBit rate : 335 Kbps \nWidth : 720 pixels \nHeight : 404 pixels \nDisplay aspect ratio : 16:9 \nFrame rate : 25.000 fps \nTitle : Atlantis 2013 S01E13 Touched by the Gods Part-2 x264 AAC E-Subs [GWC] \nWriting library : x264 core\nLanguage : English \n\nAudio \nFormat : AAC \nFormat profile : HE-AAC / LC \nDuration : 43mn 12s \nBit rate mode : Variable \nChannel(s) : 2 channels \nSampling rate : 48.0 KHz / 24.0 KHz \nStream size : 18.5 MiB (15%) \nLanguage : English\n\nText \nFormat : Timed Text \nDuration : 42mn 32s \nBit rate mode : Variable \nStream size : 16.5 KiB (0%) \nTitle : English Subtitle by Stubbie \nLanguage : English","torrent":{"xt":"urn:btih:232d03bae4119bfedc370853151585b5ee0b34f9","amp;dn":"Atlantis+2013+S01E13+Touched+by+the+Gods+Part-2+x264+AAC+E-Subs+","amp;tr":["udp%3A%2F%2Ftracker.openbittorrent.com%3A80","udp%3A%2F%2Fopen.demonii.com%3A1337","udp%3A%2F%2Ftracker.coppersurfer.tk%3A6969","udp%3A%2F%2Fexodus.desync.com%3A6969"],"infoHash":"232d03bae4119bfedc370853151585b5ee0b34f9","infoHashBuffer":{"type":"Buffer","data":[35,45,3,186,228,17,155,254,220,55,8,83,21,21,133,181,238,11,52,249]},"announce":[],"urlList":[]}}